<?xml version="1.0" encoding="UTF-8" standalone="no"?>
<svg
   xmlns:dc="http://purl.org/dc/elements/1.1/"
   xmlns:cc="http://creativecommons.org/ns#"
   xmlns:rdf="http://www.w3.org/1999/02/22-rdf-syntax-ns#"
   xmlns:svg="http://www.w3.org/2000/svg"
   xmlns="http://www.w3.org/2000/svg"
   xmlns:sodipodi="http://sodipodi.sourceforge.net/DTD/sodipodi-0.dtd"
   xmlns:inkscape="http://www.inkscape.org/namespaces/inkscape"
   version="1.1"
   id="Layer_1"
   x="0px"
   y="0px"
   viewBox="0 0 512 512"
   style="enable-background:new 0 0 512 512;"
   xml:space="preserve"
   sodipodi:docname="powerquick3.svg"
   inkscape:version="1.0.1 (0767f8302a, 2020-10-17)"><metadata
   id="metadata55"><rdf:RDF><cc:Work
       rdf:about=""><dc:format>image/svg+xml</dc:format><dc:type
         rdf:resource="http://purl.org/dc/dcmitype/StillImage" /><dc:title></dc:title></cc:Work></rdf:RDF></metadata><defs
   id="defs53" /><sodipodi:namedview
   pagecolor="#ffffff"
   bordercolor="#666666"
   borderopacity="1"
   objecttolerance="10"
   gridtolerance="10"
   guidetolerance="10"
   inkscape:pageopacity="0"
   inkscape:pageshadow="2"
   inkscape:window-width="1600"
   inkscape:window-height="792"
   id="namedview51"
   showgrid="false"
   inkscape:zoom="1.7843398"
   inkscape:cx="206.85939"
   inkscape:cy="162.34102"
   inkscape:window-x="0"
   inkscape:window-y="27"
   inkscape:window-maximized="1"
   inkscape:current-layer="Layer_1" />



<g
   id="g20">
</g>
<g
   id="g22">
</g>
<g
   id="g24">
</g>
<g
   id="g26">
</g>
<g
   id="g28">
</g>
<g
   id="g30">
</g>
<g
   id="g32">
</g>
<g
   id="g34">
</g>
<g
   id="g36">
</g>
<g
   id="g38">
</g>
<g
   id="g40">
</g>
<g
   id="g42">
</g>
<g
   id="g44">
</g>
<g
   id="g46">
</g>
<g
   id="g48">
</g>
<path
   style="opacity:1;fill:#f9f9f9;stroke-width:0.560431"
   d="M 245.24894,437.49042 C 179.73738,433.49483 121.32936,394.38049 92.553309,335.2341 84.042198,317.74033 79.076851,301.59294 75.923134,281.15247 c -1.069059,-6.92898 -1.25907,-10.47951 -1.289668,-24.09855 -0.03897,-17.34736 0.413365,-22.67027 3.048009,-35.86761 5.21758,-26.13564 16.53708,-51.9095 31.928855,-72.70017 7.99299,-10.79665 20.42334,-23.99207 30.27751,-32.14105 7.39869,-6.1184 4.90972,-7.0866 19.67599,7.65388 l 12.8649,12.84242 -1.35195,1.12086 c -0.74357,0.61648 -3.33663,2.66662 -5.76236,4.55589 -19.81523,15.43297 -36.37335,38.13346 -45.40912,62.25404 -12.80777,34.18974 -12.24294,73.23943 1.53946,106.43079 7.73851,18.63623 18.67517,34.69057 33.36706,48.98078 25.3549,24.6617 56.63167,38.50772 92.39003,40.90046 9.51976,0.63701 22.27288,0.0601 31.67297,-1.43274 29.92899,-4.75312 58.21887,-19.23311 79.86324,-40.87748 21.31065,-21.31065 35.59655,-48.81507 40.57276,-78.11406 7.08244,-41.70011 -4.05782,-83.94761 -30.72063,-116.50264 -6.08814,-7.43356 -17.10907,-18.17423 -24.00183,-23.39146 l -5.18103,-3.9216 12.97714,-12.98596 12.97714,-12.98596 5.65424,4.55809 c 6.67429,5.38039 18.67482,17.21717 24.26402,23.93293 44.8723,53.91674 55.05393,127.99768 26.31447,191.46248 -17.10541,37.77354 -47.14909,68.97444 -84.44045,87.69294 -28.13281,14.12134 -60.81514,20.86786 -91.90495,18.97167 z"
   id="path221" /><path
   style="opacity:1;fill:#f9f9f9;stroke-width:0.560431"
   d="M 232.35902,160.93994 V 79.397173 h 23.53811 23.53812 v 81.542767 81.54276 h -23.53812 -23.53811 z"
   id="path223" /></svg>
